<?xml version="1.0" standalone="no"?>
<!DOCTYPE svg PUBLIC "-//W3C//DTD SVG 20010904//EN"
 "http://www.w3.org/TR/2001/REC-SVG-20010904/DTD/svg10.dtd">
<svg version="1.0" xmlns="http://www.w3.org/2000/svg"
 width="1033.000000pt" height="1280.000000pt" viewBox="0 0 1033.000000 1280.000000"
 preserveAspectRatio="xMidYMid meet">
<metadata>
Created by potrace 1.15, written by Peter Selinger 2001-2017
</metadata>
<g transform="translate(0.000000,1280.000000) scale(0.100000,-0.100000)"
fill="#9e9e9e" stroke="none">
<path d="M4833 12739 c-194 -18 -338 -59 -753 -214 -168 -63 -366 -135 -440
-161 -156 -54 -263 -105 -375 -180 -208 -138 -371 -322 -495 -555 -35 -67 -58
-96 -100 -130 -254 -201 -452 -535 -595 -1004 -63 -206 -76 -284 -82 -471 -3
-102 -1 -213 6 -275 54 -480 258 -1082 577 -1699 l86 -165 28 -941 c16 -517
33 -952 39 -965 15 -40 53 -68 371 -279 l305 -203 47 -326 c25 -179 49 -339
51 -356 l5 -30 -357 0 c-381 -1 -514 -11 -817 -60 -531 -88 -979 -267 -1314
-526 -77 -60 -102 -86 -151 -163 -191 -294 -351 -724 -500 -1346 -134 -559
-261 -1344 -338 -2100 -35 -338 -35 -351 -12 -387 11 -18 32 -40 47 -50 26
-17 103 -18 1624 -14 1113 2 1614 0 1651 -8 32 -6 329 -15 714 -21 363 -6 894
-15 1180 -20 286 -5 777 -14 1090 -20 314 -6 813 -15 1110 -20 297 -5 792 -14
1100 -20 308 -5 813 -15 1123 -21 536 -10 564 -10 600 8 24 12 44 32 56 56 18
38 18 46 2 290 -80 1210 -265 2277 -508 2937 -89 240 -232 511 -315 594 -38
38 -157 129 -270 204 -540 362 -1404 656 -2353 802 -107 16 -197 30 -200 30
-5 0 86 480 92 485 2 1 114 66 250 144 136 78 259 156 272 172 32 38 34 56 41
434 7 405 32 1488 41 1788 4 125 11 227 15 227 5 0 9 -5 9 -11 0 -6 7 -3 16 5
8 9 20 13 26 10 5 -3 2 8 -6 25 -9 17 -15 31 -12 31 7 0 79 -119 120 -197 45
-85 108 -147 164 -162 69 -19 81 -8 144 135 344 779 418 1608 201 2261 -75
228 -250 622 -372 838 -392 694 -826 1048 -1725 1407 -454 181 -796 248 -1113
217z"/>
</g>
</svg>
